HIERARCHY
ROOT hip
{
	OFFSET 0.000000 0.000000 0.000000
	CHANNELS 6 Xposition Yposition Zposition Xrotation Zrotation Yrotation 
	JOINT abdomen
	{
		OFFSET 0.000000 3.422050 0.000000
		CHANNELS 3 Xrotation Zrotation Yrotation 
		JOINT chest
		{
			OFFSET 0.000000 8.486693 -0.6844110
			CHANNELS 3 Xrotation Zrotation Yrotation 
			JOINT neck
			{
				OFFSET 0.000000 10.26616 -0.2737640
				CHANNELS 3 Xrotation Zrotation Yrotation 
				JOINT head
				{
					OFFSET 0.000000 3.148285 0.000000
					CHANNELS 3 Xrotation Zrotation Yrotation 
					End Site
					{
						OFFSET 0.000000 3.148289 0.000000
					}
				}
			}
			JOINT lCollar
			{
				OFFSET 3.422053 6.707223 -0.8212930
				CHANNELS 3 Yrotation Zrotation Xrotation 
				JOINT lShldr
				{
					OFFSET 3.285171 0.000000 0.000000
					CHANNELS 3 Zrotation Yrotation Xrotation 
					JOINT lForeArm
					{
						OFFSET 10.12928 0.000000 0.000000
						CHANNELS 3 Yrotation Zrotation Xrotation 
						JOINT lHand
						{
							OFFSET 8.486692 0.000000 0.000000
							CHANNELS 3 Zrotation Yrotation Xrotation 
							End Site
							{
								OFFSET 4.106464 0.000000 0.000000
							}
						}
					}
				}
			}
			JOINT rCollar
			{
				OFFSET -3.558935 6.707223 -0.8212930
				CHANNELS 3 Yrotation Zrotation Xrotation 
				JOINT rShldr
				{
					OFFSET -3.148289 0.000000 0.000000
					CHANNELS 3 Zrotation Yrotation Xrotation 
					JOINT rForeArm
					{
						OFFSET -10.26616 0.000000 0.000000
						CHANNELS 3 Yrotation Zrotation Xrotation 
						JOINT rHand
						{
							OFFSET -8.349810 0.000000 0.000000
							CHANNELS 3 Zrotation Yrotation Xrotation 
							End Site
							{
								OFFSET -4.106464 0.000000 0.000000
							}
						}
					}
				}
			}
		}
	}
	JOINT lThigh
	{
		OFFSET 5.338403 -1.642589 1.368821
		CHANNELS 3 Xrotation Zrotation Yrotation 
		JOINT lShin
		{
			OFFSET -2.053232 -20.12167 0.000000
			CHANNELS 3 Xrotation Zrotation Yrotation 
			JOINT lFoot
			{
				OFFSET 0.000000 -19.30038 -1.231939
				CHANNELS 3 Xrotation Yrotation Zrotation 
				End Site
				{
					OFFSET 0.000000 -2.463878 4.653993
				}
			}
		}
	}
	JOINT rThigh
	{
		OFFSET -5.338403 -1.642589 1.368821
		CHANNELS 3 Xrotation Zrotation Yrotation 
		JOINT rShin
		{
			OFFSET 2.053232 -20.12167 0.000000
			CHANNELS 3 Xrotation Zrotation Yrotation 
			JOINT rFoot
			{
				OFFSET 0.000000 -19.30038 -1.231939
				CHANNELS 3 Xrotation Yrotation Zrotation 
				End Site
				{
					OFFSET 0.000000 -2.463878 4.653993
				}
			}
		}
	}
}
MOTION
Frames:	9
Frame Time:	0.03333333
1.450000 40.03333 11.16667 1.000000 0.000000 0.000000 1.000000 0.000000 0.000000 1.000000 0.000000 0.000000 1.000000 0.000000 0.000000 1.000000 0.000000 0.000000 0.000000 0.000000 1.000000 -80.00000 30.00000 0.000000 -85.00000 0.000000 0.000000 1.000000 0.000000 1.000000 0.000000 0.000000 1.000000 79.16666 -26.46667 0.000000 83.70000 0.000000 0.000000 0.000000 -29.96667 88.10000 -14.76667 11.20000 25.83333 29.60000 0.000000 0.000000 -18.36667 0.000000 0.000000 0.000000 -6.283333 -24.16667 11.60000 0.000000 0.000000 -9.183333 0.000000 3.866667 
1.400000 40.06667 11.33333 1.000000 0.000000 0.000000 1.000000 0.000000 0.000000 1.000000 0.000000 0.000000 1.000000 0.000000 0.000000 1.000000 0.000000 0.000000 0.000000 0.000000 1.000000 -80.00000 30.00000 0.000000 -85.00000 0.000000 0.000000 2.000000 0.000000 2.000000 0.000000 0.000000 1.000000 78.33334 -22.93333 0.000000 82.40000 0.000000 0.000000 0.000000 -28.93333 87.20000 -14.53333 11.40000 26.66667 30.20000 0.000000 0.000000 -17.73333 0.000000 0.000000 0.000000 -6.066667 -23.33333 11.20000 0.000000 0.000000 -8.866667 0.000000 3.733333 
1.350000 40.10000 11.50000 1.000000 0.000000 0.000000 1.000000 0.000000 0.000000 1.000000 0.000000 0.000000 1.000000 0.000000 0.000000 1.000000 0.000000 0.000000 0.000000 0.000000 1.000000 -80.00000 30.00000 0.000000 -85.00000 0.000000 0.000000 3.000000 0.000000 3.000000 0.000000 0.000000 1.000000 77.50000 -19.40000 0.000000 81.10000 0.000000 0.000000 0.000000 -27.90000 86.30000 -14.30000 11.60000 27.50000 30.80000 0.000000 0.000000 -17.10000 0.000000 0.000000 0.000000 -5.850000 -22.50000 10.80000 0.000000 0.000000 -8.550000 0.000000 3.600000 
1.300000 40.13334 11.66667 1.000000 0.000000 0.000000 1.000000 0.000000 0.000000 1.000000 0.000000 0.000000 1.000000 0.000000 0.000000 1.000000 0.000000 0.000000 0.000000 0.000000 1.000000 -80.00000 30.00000 0.000000 -85.00000 0.000000 0.000000 4.000000 0.000000 4.000000 0.000000 0.000000 1.000000 76.66666 -15.86667 0.000000 79.80000 0.000000 0.000000 0.000000 -26.86667 85.40000 -14.06667 11.80000 28.33333 31.40000 0.000000 0.000000 -16.46667 0.000000 0.000000 0.000000 -5.633333 -21.66667 10.40000 0.000000 0.000000 -8.233334 0.000000 3.466667 
1.250000 40.16667 11.83333 1.000000 0.000000 0.000000 1.000000 0.000000 0.000000 1.000000 0.000000 0.000000 1.000000 0.000000 0.000000 1.000000 0.000000 0.000000 0.000000 0.000000 1.000000 -80.00000 30.00000 0.000000 -85.00000 0.000000 0.000000 5.000000 0.000000 5.000000 0.000000 0.000000 1.000000 75.83334 -12.33333 0.000000 78.50000 0.000000 0.000000 0.000000 -25.83333 84.50000 -13.83333 12.00000 29.16667 32.00000 0.000000 0.000000 -15.83333 0.000000 0.000000 0.000000 -5.416667 -20.83333 10.00000 0.000000 0.000000 -7.916667 0.000000 3.333333 
1.200000 40.20000 12.00000 1.000000 0.000000 0.000000 1.000000 0.000000 0.000000 1.000000 0.000000 0.000000 1.000000 0.000000 0.000000 1.000000 0.000000 0.000000 0.000000 0.000000 1.000000 -80.00000 30.00000 0.000000 -85.00000 0.000000 0.000000 6.000000 0.000000 6.000000 0.000000 0.000000 1.000000 75.00000 -8.800000 0.000000 77.20000 0.000000 0.000000 0.000000 -24.80000 83.60000 -13.60000 12.20000 30.00000 32.60000 0.000000 0.000000 -15.20000 0.000000 0.000000 0.000000 -5.200000 -20.00000 9.600000 0.000000 0.000000 -7.600000 0.000000 3.200000 
1.150000 40.23333 12.16667 1.000000 0.000000 0.000000 1.000000 0.000000 0.000000 1.000000 0.000000 0.000000 1.000000 0.000000 0.000000 1.000000 0.000000 0.000000 0.000000 0.000000 1.000000 -80.00000 30.00000 0.000000 -85.00000 0.000000 0.000000 7.000000 0.000000 7.000000 0.000000 0.000000 1.000000 74.16666 -5.266667 0.000000 75.90000 0.000000 0.000000 0.000000 -23.76667 82.70000 -13.36667 12.40000 30.83333 33.20000 0.000000 0.000000 -14.56667 0.000000 0.000000 0.000000 -4.983333 -19.16667 9.200000 0.000000 0.000000 -7.283333 0.000000 3.066667 
1.100000 40.26667 12.33333 1.000000 0.000000 0.000000 1.000000 0.000000 0.000000 1.000000 0.000000 0.000000 1.000000 0.000000 0.000000 1.000000 0.000000 0.000000 0.000000 0.000000 1.000000 -80.00000 30.00000 0.000000 -85.00000 0.000000 0.000000 8.000000 0.000000 8.000000 0.000000 0.000000 1.000000 73.33334 -1.733333 0.000000 74.60000 0.000000 0.000000 0.000000 -22.73333 81.80000 -13.13333 12.60000 31.66667 33.80000 0.000000 0.000000 -13.93333 0.000000 0.000000 0.000000 -4.766667 -18.33333 8.800000 0.000000 0.000000 -6.966667 0.000000 2.933333 
1.050000 40.30000 12.50000 1.000000 0.000000 0.000000 1.000000 0.000000 0.000000 1.000000 0.000000 0.000000 1.000000 0.000000 0.000000 1.000000 0.000000 0.000000 0.000000 0.000000 1.000000 -80.00000 30.00000 0.000000 -85.00000 0.000000 0.000000 9.000000 0.000000 9.000000 0.000000 0.000000 1.000000 72.50000 1.800000 0.000000 73.30000 0.000000 0.000000 0.000000 -21.70000 80.90000 -12.90000 12.80000 32.50000 34.40000 0.000000 0.000000 -13.30000 0.000000 0.000000 0.000000 -4.550000 -17.50000 8.400000 0.000000 0.000000 -6.650000 0.000000 2.800000 
